<svg width="1184" height="628" viewBox="0 0 1184 628" fill="none" xmlns="http://www.w3.org/2000/svg">
<path d="M297.918 51.6061V129.628H235.226V51.6061H173.903V252H235.226V178.632H297.918V252H358.693V51.6061H297.918ZM493.285 255.285C557.346 255.285 600.326 208.746 600.326 151.803C600.326 95.1343 557.346 48.321 493.285 48.321C428.951 48.321 385.971 95.1343 385.971 151.803C385.971 208.746 428.951 255.285 493.285 255.285ZM493.285 99.5145C522.852 99.5145 539.004 123.879 539.004 151.803C539.004 181.096 522.304 203.818 493.285 203.818C463.445 203.818 447.293 180.548 447.293 151.803C447.293 123.058 463.445 99.5145 493.285 99.5145ZM771.832 51.6061H606.753V100.61H658.768V252H719.817V100.61H771.832V51.6061ZM949.452 100.61V51.6061H789.849V252H949.452V202.997H850.898V176.168H938.228V127.164H850.898V100.61H949.452ZM1042.06 202.997V51.6061H980.46V252H1137.33V202.997H1042.06Z" fill="#026836"/>
<path d="M108.1 303.925C95.0116 310.759 84.3559 316.28 76.1325 320.488C67.9091 324.697 61.23 328.133 56.0952 330.797C51.192 333.153 47.3119 334.948 44.455 336.183C41.8297 337.11 39.436 337.728 37.2739 338.037C30.7878 338.964 27.313 337.805 26.8497 334.562C26.5794 332.671 27.2163 330.373 28.7606 327.671C30.3048 324.968 32.0035 322.381 33.8567 319.91C35.98 317.401 38.0069 315.181 39.9373 313.25C41.8676 311.32 43.2189 310.162 43.991 309.776C53.9903 300.625 65.225 292.401 77.6952 285.104C90.1268 277.537 103.118 270.992 116.67 265.471C130.453 259.641 144.506 254.737 158.829 250.76C173.423 246.745 187.882 243.714 202.205 241.667C210.853 240.431 219.965 239.543 229.54 239.002C239.114 238.462 248.303 238.114 257.106 237.959C264.557 237.998 272.877 238.326 282.066 238.943C291.525 239.522 301.196 240.622 311.08 242.243C320.964 243.865 330.674 246.2 340.21 249.25C349.707 252.03 358.375 255.755 366.213 260.426C374.05 265.098 380.536 270.927 385.672 277.915C391.038 284.594 394.378 292.528 395.691 301.717C397.583 314.959 395.614 327.237 389.785 338.549C384.187 349.553 376.234 359.514 365.926 368.432C355.618 377.351 343.669 385.401 330.079 392.583C316.759 399.725 303.189 406.077 289.367 411.637C275.777 416.888 262.651 421.521 249.987 425.537C237.555 429.243 227.228 432.236 219.004 434.514C219.931 442.93 220.665 452.891 221.206 464.396C222.017 475.863 222.345 486.847 222.191 497.348C222.037 507.85 221.246 516.788 219.817 524.162C218.428 531.806 215.976 535.879 212.463 536.381C210.301 536.69 208.235 534.779 206.266 530.648C201.092 521.46 197.096 509.897 194.278 495.959C191.729 481.983 188.968 464.59 185.995 443.781C174.297 446.831 162.714 449.727 151.248 452.468C140.051 455.171 128.855 457.874 117.659 460.577C117.35 460.345 115.458 460.615 111.984 461.388C108.779 462.121 104.648 463.125 99.5905 464.399C94.4942 465.403 88.9926 466.465 83.0856 467.585C77.4489 468.666 72.0438 469.438 66.8703 469.902C61.9671 470.327 57.6816 470.25 54.0138 469.671C50.6163 469.053 48.7631 467.663 48.4541 465.501C48.1452 463.339 50.9636 460.868 56.9091 458.088C63.1249 455.27 70.3253 452.586 78.5101 450.038C86.9652 447.451 95.1887 445.173 103.181 443.204C111.172 441.234 117.021 439.709 120.728 438.628C130.92 436.62 141.19 434.188 151.537 431.33C161.845 428.203 172.424 425.037 183.272 421.832C183.774 419.554 183.774 415.693 183.272 410.25C183.04 404.767 182.712 398.609 182.287 391.776C181.862 384.942 181.418 377.973 180.955 370.869C180.723 363.457 180.723 356.7 180.954 350.6C181.186 344.5 181.842 339.442 182.923 335.427C184.235 331.103 186.378 328.729 189.351 328.304C195.296 327.454 200.122 328.419 203.829 331.199C207.535 333.979 210.296 337.859 212.111 342.839C214.196 347.781 215.547 353.379 216.165 359.634C217.053 365.849 217.555 372.258 217.671 378.86C217.748 385.192 217.652 391.273 217.382 397.103C217.073 402.662 217.035 407.218 217.266 410.77C223.096 409.11 231.03 406.735 241.068 403.646C251.338 400.248 262.225 396.349 273.73 391.947C285.197 387.275 296.721 382.044 308.303 376.252C319.886 370.461 330.136 364.032 339.054 356.967C348.243 349.862 355.443 342.353 360.655 334.438C365.828 326.253 367.758 317.566 366.445 308.378C365.403 301.081 361.928 295.097 356.021 290.425C350.345 285.445 343.164 281.507 334.477 278.612C325.752 275.446 315.926 273.265 305 272.068C294.305 270.563 283.302 269.791 271.99 269.753C260.909 269.405 249.925 269.734 239.038 270.738C228.382 271.433 218.865 272.379 210.487 273.576C192.65 276.125 175.161 280.141 158.019 285.623C141.109 290.797 124.469 296.898 108.1 303.925ZM403.918 406.025C403.686 408.264 402.702 410.059 400.965 411.41C399.459 412.453 397.741 412.974 395.81 412.974C393.841 412.704 392.22 411.971 390.946 410.774C389.633 409.307 389.343 407.28 390.077 404.693L391.525 397.454C388.745 395.369 386.988 392.725 386.254 389.52C385.521 386.316 385.636 383.266 386.602 380.37C387.528 377.204 389.072 374.501 391.234 372.262C393.628 369.714 396.446 368.208 399.689 367.745C405.365 366.934 408.782 368.652 409.94 372.899C411.06 376.875 410.905 381.586 409.477 387.029C411.214 387.608 413.801 387.377 417.237 386.334C420.944 385.253 424.418 384.481 427.661 384.017C430.866 383.284 433.646 383.438 436.001 384.48C438.356 385.523 439.34 388.554 438.954 393.573C438.568 398.592 438.183 404.576 437.797 411.525C437.681 418.436 437.797 425.038 438.145 431.331C438.454 437.354 439.187 442.489 440.346 446.736C441.504 450.983 443.299 452.932 445.732 452.585C447.353 452.353 449.052 449.766 450.828 444.825C452.835 439.574 454.746 433.647 456.561 427.045C458.375 420.443 459.919 413.88 461.193 407.355C462.428 400.56 463.084 395.502 463.162 392.182C463.316 389.402 464.127 387.356 465.594 386.043C467.331 384.692 469.165 384.016 471.095 384.016C472.987 383.746 474.589 384.344 475.902 385.811C477.446 386.97 478.277 388.919 478.392 391.661C478.315 393.05 478.064 396.12 477.64 400.869C477.177 405.347 476.405 410.559 475.324 416.505C474.204 422.18 472.737 428.319 470.923 434.921C469.07 441.253 466.618 447.256 463.569 452.932C460.519 458.607 456.909 463.26 452.739 466.889C448.608 470.788 443.686 473.009 437.972 473.549C431.447 474.206 426.312 472.044 422.567 467.063C418.783 461.813 415.946 455.462 414.054 448.011C412.123 440.289 411.08 432.027 410.926 423.224C411.041 414.383 411.717 406.565 412.952 399.77C411.639 400.233 410.307 400.561 408.956 400.754C407.605 400.948 406.254 401.141 404.902 401.334C404.285 402.801 403.956 404.364 403.918 406.025ZM461.596 379.169C460.67 372.683 461.654 367.992 464.549 365.096C467.715 362.162 471.364 360.675 475.495 360.636C479.626 360.598 483.39 361.852 486.788 364.4C490.185 366.949 491.788 370.443 491.595 374.882C491.209 379.901 490.996 386.137 490.958 393.588C491.19 401.001 491.653 408.105 492.348 414.9C493.044 421.695 494.009 427.486 495.245 432.273C496.75 437.022 498.719 439.223 501.152 438.875C502.773 438.643 504.375 436.346 505.958 431.983C507.773 427.312 509.356 421.984 510.707 416C512.058 410.015 513.274 404.05 514.355 398.105C515.436 392.159 516.034 387.661 516.15 384.611C516.574 381.793 517.675 379.843 519.45 378.762C521.188 377.411 522.906 376.889 524.605 377.198C526.535 377.198 528.157 377.932 529.469 379.399C531.052 380.827 531.612 382.815 531.149 385.364C530.84 387.062 530.338 390.305 529.643 395.093C529.18 399.571 528.389 404.648 527.269 410.324C526.15 415.999 524.664 422.003 522.811 428.335C521.189 434.357 518.95 439.917 516.093 445.013C513.468 449.801 510.302 453.7 506.596 456.712C502.89 459.723 498.508 460.901 493.45 460.245C485.844 459.125 480.014 455.96 475.96 450.748C472.138 445.227 469.416 438.721 467.794 431.231C466.134 423.471 465.072 415.074 464.608 406.04C463.836 396.774 462.832 387.817 461.596 379.169ZM499.875 317.028C500.84 319.924 500.84 322.819 499.875 325.715C499.141 328.302 497.713 330.85 495.59 333.359C493.428 335.599 490.822 337.626 487.772 339.44C484.722 341.255 481.479 342.684 478.042 343.726C471.402 345.502 464.684 345.773 457.889 344.537C451.094 343.302 446.886 339.905 445.264 334.345C443.333 328.554 444.511 323.284 448.796 318.535C452.773 313.555 458.583 309.829 466.227 307.358C473.872 304.886 480.995 304.558 487.597 306.373C494.16 307.917 498.253 311.469 499.875 317.028ZM513.776 359.717C514.007 353.617 515.918 348.656 519.508 344.834C523.06 340.741 526.786 337.865 530.685 336.204C534.816 334.235 538.445 333.579 541.573 334.235C544.932 334.582 546.437 336.436 546.09 339.794C545.82 343.694 545.608 348.964 545.453 355.605C545.299 362.245 545.299 369.002 545.454 375.874C545.608 382.746 545.86 389.329 546.207 395.622C546.516 401.645 546.864 406.007 547.25 408.71C547.79 404.772 548.582 400.66 549.624 396.375C550.666 392.089 551.728 387.939 552.809 383.923C554.121 379.599 555.492 375.68 556.92 372.167C558.349 368.654 559.739 365.835 561.09 363.712C562.595 360.739 565.144 358.307 568.734 356.415C572.556 354.214 576.089 352.882 579.332 352.418C582.845 351.917 585.818 352.457 588.25 354.04C590.683 355.623 591.474 358.267 590.625 361.974C590.316 363.672 590.22 366.858 590.336 371.529C590.452 376.201 590.625 381.278 590.857 386.76C591.938 382.745 593.502 378.247 595.548 373.266C597.594 368.286 599.679 363.576 601.802 359.136C603.887 354.426 605.759 350.159 607.419 346.337C609.349 342.476 610.874 339.638 611.994 337.824C613.5 334.851 616.028 332.283 619.58 330.121C623.093 327.689 626.607 326.222 630.12 325.72C633.633 325.218 636.741 325.739 639.444 327.283C642.108 328.557 643.594 331.24 643.903 335.333C643.903 337.263 643.826 340.584 643.672 345.294C643.788 349.965 643.73 355.351 643.499 361.451C643.267 367.551 643.074 373.922 642.92 380.562C643.036 387.164 643.075 393.226 643.036 398.747C643.229 403.959 643.442 408.341 643.674 411.893C644.176 415.406 644.967 417.085 646.048 416.931C647.67 416.699 649.561 414.498 651.723 410.329C653.885 406.159 655.816 401.333 657.514 395.851C659.444 390.059 661.085 384.172 662.436 378.187C664.058 372.164 665.158 367.319 665.737 363.651C666.2 361.103 667.185 359.308 668.69 358.265C670.428 356.914 672.146 356.393 673.844 356.702C675.505 356.74 676.991 357.493 678.304 358.96C679.578 360.157 680.118 362.01 679.925 364.52C679.655 368.419 678.536 374.094 676.567 381.546C674.83 388.688 672.436 396.063 669.386 403.668C666.337 411.274 662.785 418.262 658.731 424.633C654.677 431.003 650.141 434.961 645.122 436.505C639.601 438.397 634.91 438.378 631.049 436.448C627.459 434.479 624.525 431.313 622.247 426.95C620.239 422.549 618.694 417.53 617.613 411.893C616.493 405.986 615.798 400.156 615.528 394.404C615.258 388.651 615.219 383.555 615.412 379.115C615.566 374.405 615.894 370.911 616.396 368.633C615.122 369.367 613.462 372.224 611.416 377.204C609.37 382.185 607.266 387.725 605.104 393.825C603.173 399.616 601.378 405.388 599.718 411.141C598.02 416.623 596.9 420.368 596.36 422.376L596.302 421.97C595.993 423.669 594.912 425.754 593.059 428.225C591.437 430.387 589.372 432.337 586.862 434.074C584.314 435.542 581.824 436.449 579.392 436.796C577.23 437.105 575.55 435.966 574.353 433.38C573.156 430.793 572.095 427.222 571.168 422.666C570.203 417.84 569.411 413.265 568.793 408.941C568.137 404.347 567.558 400.293 567.056 396.779C566.785 392.957 566.457 390.66 566.071 389.888C564.797 390.622 563.658 393.266 562.654 397.822C561.651 402.378 560.589 407.493 559.469 413.169C558.62 418.806 557.925 424.558 557.385 430.427C556.845 436.295 556.536 440.889 556.459 444.21C556.42 447.8 554.895 450.638 551.884 452.723C549.181 455.039 545.938 456.468 542.155 457.009C538.642 457.511 535.263 457.028 532.02 455.561C529.047 454.055 527.406 451.256 527.097 447.164C526.711 442.531 525.707 436.47 524.086 428.98C522.696 421.181 521.132 413.131 519.394 404.83C517.927 396.491 516.614 388.268 515.455 380.16C514.297 372.052 513.737 365.238 513.776 359.717ZM707.953 317.081C711.852 317.351 715.346 318.644 718.435 320.961C721.794 323.238 724.651 325.864 727.006 328.836C728.821 326.095 731.33 324.358 734.535 323.624C737.739 322.891 740.924 322.987 744.09 323.913C747.217 324.57 749.92 326.114 752.198 328.546C754.437 330.708 755.538 333.585 755.499 337.175C755.113 342.194 754.901 348.429 754.862 355.881C755.094 363.293 755.558 370.397 756.253 377.192C756.948 383.987 757.913 389.778 759.149 394.566C760.655 399.315 762.489 401.535 764.651 401.226C766.272 400.994 767.874 398.697 769.457 394.334C771.272 389.662 772.855 384.334 774.206 378.35C775.827 372.327 777.178 366.343 778.259 360.397C779.34 354.452 779.938 349.954 780.054 346.904C780.479 344.085 781.579 342.136 783.355 341.054C785.092 339.703 786.81 339.182 788.509 339.491C790.439 339.491 792.061 340.224 793.374 341.691C794.957 343.12 795.516 345.108 795.053 347.656C794.744 349.355 794.243 352.598 793.548 357.385C793.085 361.864 792.293 366.941 791.174 372.616C790.054 378.292 788.568 384.295 786.715 390.627C785.094 396.65 782.854 402.21 779.998 407.306C777.372 412.093 774.071 416.012 770.095 419.062C766.389 422.074 762.007 423.252 756.949 422.595C748.803 421.553 742.452 417.635 737.896 410.84C736.66 417.635 734.518 423.87 731.468 429.545C728.457 435.491 724.152 440.105 718.554 443.387C713.149 446.089 708.207 447.209 703.728 446.746C695.582 445.704 688.671 441.727 682.996 434.817C677.32 427.906 672.957 419.567 669.907 409.799C666.857 400.031 665.235 389.646 665.041 378.642C664.848 367.639 666.161 357.524 668.979 348.296C672.067 339.03 676.777 331.463 683.109 325.594C689.402 319.456 697.683 316.618 707.953 317.081ZM724.343 356.518C723.146 352.001 721.428 347.697 719.188 343.604C717.219 339.473 714.71 337.35 711.66 337.234C707.22 337.041 703.533 339.223 700.599 343.778C697.896 348.025 695.927 353.546 694.692 360.341C693.457 367.136 692.858 374.53 692.897 382.522C693.168 390.205 693.94 397.54 695.214 404.528C696.72 411.207 698.631 416.864 700.948 421.496C703.535 426.091 706.624 428.407 710.214 428.446C713.805 428.484 716.777 426.129 719.132 421.38C721.758 416.593 723.669 410.666 724.865 403.601C726.332 396.497 727.027 388.814 726.949 380.552C727.104 371.981 726.235 363.97 724.343 356.518ZM777.829 324.884C777.443 320.251 778.832 316.467 781.998 313.533C785.434 310.56 789.141 308.514 793.117 307.394C797.094 306.274 800.781 306.023 804.178 306.641C807.537 306.988 809.12 308.417 808.927 310.926C807.846 318.803 807.943 327.2 809.217 336.118C810.723 344.728 812.577 352.874 814.778 360.557C817.21 367.931 819.874 374.031 822.77 378.857C825.666 383.683 828.195 385.941 830.357 385.633C832.789 385.285 834.661 381.984 835.974 375.729C837.518 369.166 838.541 361.85 839.043 353.781C839.815 345.673 840.2 337.758 840.2 330.037C840.2 322.315 839.988 316.968 839.563 313.995C839.177 311.292 839.833 309.13 841.532 307.509C843.501 305.849 845.566 304.864 847.728 304.555C849.89 304.246 851.879 304.652 853.693 305.771C855.778 306.852 856.878 308.763 856.994 311.504C856.956 313.165 857.033 316.601 857.226 321.813C857.419 327.025 857.323 333.106 856.937 340.055C856.821 346.966 856.204 354.224 855.084 361.83C853.965 369.436 852.228 376.578 849.873 383.258C847.518 389.937 844.333 395.632 840.318 400.342C836.573 405.014 831.747 407.909 825.84 409.029C818.35 410.651 811.671 409.261 805.802 404.86C799.895 400.189 794.837 393.741 790.629 385.518C786.691 377.256 783.679 367.758 781.594 357.025C779.239 346.331 777.984 335.617 777.829 324.884ZM943.301 323.992C941.564 327.274 939.208 330.092 936.236 332.448C933.263 334.803 929.981 336.926 926.391 338.818C922.762 340.44 918.959 341.81 914.982 342.93C911.276 344.011 907.956 344.899 905.021 345.594C905.022 351.386 905.273 357.003 905.775 362.447C906.547 367.852 907.512 372.678 908.671 376.925C910.099 381.133 911.702 384.627 913.478 387.407C915.524 390.148 917.956 391.731 920.775 392.155C924.442 392.734 928.149 391.653 931.894 388.912C935.6 385.9 939.055 382.097 942.26 377.503C945.464 372.909 948.437 367.658 951.178 361.751C953.919 355.844 956.293 350.265 958.301 345.014C960.269 339.493 961.91 334.57 963.223 330.246C964.497 325.652 965.269 322.37 965.539 320.401C966.002 317.853 966.987 316.058 968.492 315.015C970.268 313.934 971.986 313.413 973.646 313.451C975.307 313.49 976.793 314.243 978.106 315.71C979.38 316.907 979.92 318.76 979.727 321.269C979.419 322.968 978.936 326.346 978.28 331.404C977.585 336.192 976.311 341.751 974.458 348.083C972.875 354.376 970.656 361.036 967.799 368.063C965.174 374.781 961.68 381.209 957.317 387.348C952.916 393.216 947.588 398.39 941.334 402.869C935.35 407.309 928.304 410.108 920.196 411.266C910.467 412.656 902.417 410.359 896.047 404.375C889.676 398.391 884.811 390.4 881.452 380.4C878.093 370.401 876.259 359.494 875.95 347.68C875.332 335.634 876.046 324.226 878.092 313.454C880.408 302.644 883.786 293.474 888.225 285.945C892.935 278.378 898.669 274.112 905.425 273.146C911.911 272.22 917.915 273.706 923.436 277.605C929.188 281.196 933.841 285.77 937.393 291.33C940.945 296.889 943.3 302.758 944.459 308.935C945.887 315.074 945.501 320.093 943.301 323.992ZM913.012 291.504C911.236 292.585 909.711 296.388 908.437 302.913C907.125 309.168 906.14 316.754 905.484 325.673C908.457 325.248 911.391 324.553 914.287 323.588C917.144 322.352 919.093 320.557 920.136 318.202C920.985 316.426 921.333 314.032 921.178 311.02C920.985 307.739 920.386 304.515 919.383 301.349C918.649 298.145 917.587 295.539 916.197 293.531C915.078 291.485 914.016 290.809 913.012 291.504ZM978.738 323.893C978.507 326.132 977.522 327.927 975.785 329.279C974.279 330.321 972.561 330.842 970.631 330.842C968.662 330.572 967.04 329.839 965.766 328.642C964.454 327.175 964.164 325.148 964.897 322.561L966.345 315.322C963.565 313.237 961.809 310.593 961.075 307.388C960.341 304.184 960.457 301.134 961.422 298.238C962.349 295.072 963.893 292.37 966.055 290.13C968.449 287.582 971.267 286.076 974.51 285.613C980.185 284.802 983.602 286.52 984.761 290.767C985.88 294.743 985.726 299.454 984.298 304.897C986.035 305.476 988.622 305.245 992.058 304.202C995.764 303.121 999.239 302.349 1002.48 301.886C1005.69 301.152 1008.47 301.306 1010.82 302.349C1013.18 303.391 1014.16 306.422 1013.77 311.441C1013.39 316.46 1013 322.444 1012.62 329.394C1012.5 336.304 1012.62 342.906 1012.97 349.199C1013.27 355.222 1014.01 360.357 1015.17 364.604C1016.32 368.851 1018.12 370.801 1020.55 370.453C1022.17 370.221 1023.87 367.635 1025.65 362.693C1027.66 357.442 1029.57 351.516 1031.38 344.913C1033.2 338.311 1034.74 331.748 1036.01 325.223C1037.25 318.428 1037.91 313.371 1037.98 310.05C1038.14 307.27 1038.95 305.224 1040.41 303.912C1042.15 302.56 1043.99 301.884 1045.92 301.884C1047.81 301.614 1049.41 302.213 1050.72 303.68C1052.27 304.838 1053.1 306.787 1053.21 309.529C1053.14 310.919 1052.88 313.988 1052.46 318.737C1052 323.215 1051.23 328.427 1050.14 334.373C1049.02 340.048 1047.56 346.187 1045.74 352.789C1043.89 359.121 1041.44 365.125 1038.39 370.8C1035.34 376.475 1031.73 381.128 1027.56 384.757C1023.43 388.657 1018.51 390.877 1012.79 391.417C1006.27 392.074 1001.13 389.912 997.388 384.932C993.604 379.681 990.766 373.33 988.874 365.879C986.944 358.157 985.901 349.895 985.746 341.092C985.862 332.251 986.537 324.433 987.773 317.638C986.46 318.101 985.128 318.43 983.777 318.623C982.425 318.816 981.074 319.009 979.723 319.202C979.105 320.669 978.777 322.233 978.738 323.893ZM1080.08 263.91C1083.98 264.18 1087.48 265.473 1090.56 267.79C1093.92 270.068 1096.78 272.693 1099.14 275.666C1100.95 272.924 1103.46 271.187 1106.66 270.453C1109.87 269.72 1113.05 269.816 1116.22 270.743C1119.35 271.399 1122.05 272.943 1124.33 275.375C1126.57 277.537 1127.67 280.414 1127.63 284.004C1127.24 289.023 1127.03 295.259 1126.99 302.71C1127.22 310.123 1127.69 317.227 1128.38 324.022C1129.08 330.817 1130.04 336.608 1131.28 341.395C1132.78 346.144 1134.62 348.364 1136.78 348.055C1138.4 347.823 1140 345.526 1141.59 341.163C1143.4 336.492 1144.98 331.164 1146.33 325.179C1147.96 319.156 1149.31 313.172 1150.39 307.226C1151.47 301.281 1152.07 296.783 1152.18 293.733C1152.61 290.915 1153.71 288.965 1155.48 287.884C1157.22 286.532 1158.94 286.011 1160.64 286.32C1162.57 286.32 1164.19 287.053 1165.5 288.521C1167.09 289.949 1167.65 291.937 1167.18 294.485C1166.87 296.184 1166.37 299.427 1165.68 304.215C1165.21 308.693 1164.42 313.77 1163.3 319.446C1162.18 325.121 1160.7 331.125 1158.84 337.456C1157.22 343.479 1154.98 349.039 1152.13 354.135C1149.5 358.923 1146.2 362.841 1142.22 365.892C1138.52 368.903 1134.14 370.081 1129.08 369.425C1120.93 368.382 1114.58 364.464 1110.02 357.669C1108.79 364.464 1106.65 370.699 1103.6 376.375C1100.59 382.32 1096.28 386.934 1090.68 390.216C1085.28 392.919 1080.34 394.038 1075.86 393.575C1067.71 392.533 1060.8 388.557 1055.12 381.646C1049.45 374.735 1045.09 366.396 1042.04 356.628C1038.99 346.86 1037.36 336.475 1037.17 325.472C1036.98 314.468 1038.29 304.353 1041.11 295.126C1044.2 285.86 1048.91 278.292 1055.24 272.424C1061.53 266.285 1069.81 263.447 1080.08 263.91ZM1096.47 303.348C1095.27 298.831 1093.56 294.526 1091.32 290.433C1089.35 286.302 1086.84 284.179 1083.79 284.063C1079.35 283.87 1075.66 286.052 1072.73 290.608C1070.03 294.855 1068.06 300.376 1066.82 307.171C1065.59 313.966 1064.99 321.359 1065.03 329.351C1065.3 337.034 1066.07 344.37 1067.34 351.358C1068.85 358.037 1070.76 363.693 1073.08 368.326C1075.66 372.92 1078.75 375.236 1082.34 375.275C1085.93 375.313 1088.91 372.958 1091.26 368.209C1093.89 363.422 1095.8 357.496 1096.99 350.43C1098.46 343.326 1099.16 335.643 1099.08 327.381C1099.23 318.81 1098.36 310.799 1096.47 303.348Z" fill="#8AC53A"/>
</svg>
